<svg width="88" height="90" viewBox="0 0 88 90" fill="none" xmlns="http://www.w3.org/2000/svg">
<path d="M62.353 23.8502C61.2992 22.7844 59.8887 22.1941 58.3809 22.1777H33.1862C30.1058 22.1777 27.5766 24.7193 27.5766 27.8511V29.9007H25.3554C24.6096 29.9007 24.0098 30.5074 24.0098 31.2617C24.0098 32.0159 24.6096 32.6226 25.3554 32.6226H27.5766V39.1159H25.3554C24.6096 39.1323 24.0098 39.7389 24.0098 40.4932C24.0098 41.2475 24.6096 41.8542 25.3554 41.8542H27.5766V48.3474H25.3554C24.6096 48.3474 24.0098 48.9705 24.0098 49.7247C24.0098 50.479 24.6096 51.0857 25.3554 51.0857H27.5766V57.5789H25.3554C24.6096 57.5789 24.0098 58.1856 24.0098 58.9399C24.0098 59.6941 24.6096 60.3008 25.3554 60.3008H27.5766V62.3504C27.5766 65.4823 30.0896 68.0238 33.1862 68.0238H58.3809C61.4775 68.0238 63.9905 65.4823 63.9905 62.3504V27.8511C63.9905 26.3426 63.4068 24.916 62.353 23.8502ZM30.2841 60.3172H32.4891C33.2348 60.3172 33.8347 59.7105 33.8347 58.9563C33.8347 58.202 33.2348 57.5953 32.4891 57.5953H30.2841V51.1021H32.4891C33.2348 51.1021 33.8347 50.4954 33.8347 49.7411C33.8347 48.9869 33.2348 48.3802 32.4891 48.3802H30.2841V41.887H32.4891C33.2348 41.887 33.8347 41.2803 33.8347 40.526C33.8347 39.7717 33.2348 39.1651 32.4891 39.1651H30.2841V32.6226H32.4891C33.2348 32.6226 33.8347 32.0159 33.8347 31.2617C33.8347 30.5074 33.2348 29.9007 32.4891 29.9007H30.2841V27.8511C30.2841 26.2278 31.5973 24.8996 33.2024 24.8996H58.3809C59.9859 24.8996 61.283 26.2278 61.2992 27.8511V62.3504C61.2992 63.9737 59.9859 65.2855 58.3809 65.3019H33.2024C31.5973 65.3019 30.3003 63.9737 30.2841 62.3504V60.3172Z" fill="#662C91"/>
<path d="M45.7837 44.7894C48.6371 44.7894 50.9556 42.4447 50.9556 39.5588C50.9556 36.6729 48.6371 34.3281 45.7837 34.3281C42.9302 34.3281 40.6118 36.6729 40.6118 39.5588C40.6118 42.4447 42.9302 44.7894 45.7837 44.7894ZM45.7837 36.4761C47.4536 36.4761 48.8155 37.8535 48.8155 39.5424C48.8155 41.2313 47.4536 42.6086 45.7837 42.6086C44.1138 42.6086 42.7519 41.2313 42.7519 39.5424C42.7519 37.8535 44.1138 36.4761 45.7837 36.4761Z" fill="#662C91"/>
<path d="M38.9416 55.89H52.6252C53.2089 55.89 53.6953 55.4145 53.6953 54.8078C53.6953 50.1675 50.2257 46.5273 45.7834 46.5273C41.3411 46.5273 37.8716 50.1675 37.8716 54.8078C37.8716 55.3981 38.358 55.89 38.9416 55.89ZM45.7834 48.6754C48.7179 48.6754 51.0202 50.7742 51.4741 53.7256H40.0927C40.5467 50.7906 42.8327 48.6754 45.7834 48.6754Z" fill="#662C91"/>
</svg>
