<svg width="155" height="32" viewBox="0 0 155 32" fill="none" xmlns="http://www.w3.org/2000/svg">
<path d="M21.4079 31.6788C17.8915 31.6788 14.3395 31.6788 10.823 31.6788C7.3065 31.6788 3.71899 31.6788 0.166992 31.6788V0H10.2902V8.43764C12.1372 8.43764 14.0198 8.43764 15.8668 8.43764C17.7139 8.43764 19.5964 8.43764 21.4434 8.43764C22.9708 8.43764 23.8943 8.92733 23.8943 8.92733C24.2495 9.078 24.6047 9.26634 24.8889 9.49235C25.173 9.71836 25.4927 9.98203 25.7414 10.2834C26.2386 10.8861 26.6294 11.6394 26.9135 12.5058C26.9846 12.9201 27.0911 13.3345 27.1622 13.8242C27.2332 14.3139 27.2687 14.8035 27.2687 15.3309V24.9363C27.2687 25.5013 27.2332 26.0286 27.1622 26.4806C27.0911 26.9327 26.9846 27.3847 26.8425 27.7614C26.6649 28.251 26.4873 28.7031 26.2386 29.1174C25.99 29.5318 25.7414 29.8331 25.4217 30.0968C25.173 30.3981 24.8534 30.6241 24.5337 30.8501C24.214 31.0761 23.8943 31.1891 23.5746 31.3022C23.5746 31.3022 22.4735 31.6788 21.4079 31.6788ZM15.9023 12.9955H11.4979C11.3203 12.9955 11.1782 13.0331 11.0361 13.1462C10.894 13.2592 10.7519 13.3722 10.6454 13.5228C10.4678 13.6735 10.3612 13.8242 10.2902 14.0125C10.2191 14.2009 10.1836 14.3892 10.1836 14.5775V25.6896C10.1836 25.878 10.2191 26.0286 10.3257 26.1793C10.4323 26.33 10.5033 26.4806 10.6099 26.5936C10.7519 26.7443 10.894 26.8573 11.0361 26.9327C11.1782 27.008 11.3558 27.121 11.5334 27.121H15.9379C16.0799 27.121 16.222 27.0833 16.3641 26.9703C16.5062 26.8573 16.6483 26.782 16.7548 26.6313C16.8614 26.4806 16.9679 26.33 17.039 26.1793C17.11 26.0286 17.1455 25.8403 17.1455 25.6896V14.5399C17.1455 14.3892 17.11 14.2385 17.039 14.0502C16.9679 13.8618 16.8969 13.6735 16.7548 13.5605C16.6127 13.4475 16.5062 13.2968 16.3641 13.1838C16.222 13.0708 16.0799 12.9955 15.9023 12.9955Z" fill="#202020"/>
<path d="M30.4297 8.43848H39.6294V10.1335C39.7359 9.90753 39.878 9.68152 40.0201 9.45551C40.1622 9.22951 40.3398 9.07883 40.4818 8.92816C40.6594 8.77749 40.8726 8.66448 41.0502 8.58915C41.2278 8.51381 41.4409 8.43848 41.6895 8.43848H51.4575C51.9193 8.43848 52.3455 8.51381 52.7007 8.70215C53.0559 8.89049 53.3401 9.1165 53.5532 9.38018C53.7308 9.56852 53.9084 9.79453 54.0149 10.0205C54.1215 10.2465 54.2281 10.4349 54.2991 10.6232C54.3701 10.8116 54.4057 10.9246 54.4412 10.9999C54.4767 11.0752 54.4412 11.0752 54.4057 10.9622C54.4767 10.6609 54.5477 10.3595 54.6188 10.0959C54.6898 9.8322 54.8319 9.56852 54.974 9.34251C55.1161 9.04117 55.2937 8.81516 55.5068 8.66448C55.7199 8.51381 56.0041 8.43848 56.2882 8.43848H64.3157C64.884 8.43848 65.4168 8.51381 65.8786 8.62682C66.3404 8.73982 66.7311 8.92816 67.1218 9.19184C67.5125 9.45551 67.7967 9.71919 68.0808 10.0205C68.365 10.3219 68.5781 10.6986 68.7912 11.0752C68.9688 11.4143 69.1109 11.7533 69.2175 12.1299C69.324 12.5066 69.4306 12.8833 69.5016 13.26C69.5727 13.7497 69.6437 14.2394 69.6792 14.729C69.7148 15.2187 69.7503 15.6707 69.7503 16.1228V31.642H60.5506V14.277C60.5506 14.0887 60.5151 13.9003 60.444 13.7497C60.373 13.599 60.302 13.486 60.2309 13.3353C60.1244 13.26 60.0178 13.1847 59.8757 13.1093C59.7336 13.034 59.6271 13.034 59.485 13.034H55.6489C55.5068 13.034 55.4002 13.0716 55.2581 13.147C55.1161 13.2223 55.045 13.2977 54.974 13.373C54.9029 13.486 54.8319 13.6367 54.7609 13.7873C54.6898 13.938 54.6898 14.051 54.6898 14.2017V31.642H45.4546V14.3524C45.4546 14.2017 45.4191 14.051 45.3836 13.8627C45.3481 13.6743 45.277 13.5237 45.206 13.4107C45.0994 13.26 44.9573 13.147 44.8153 13.0716C44.6732 12.9963 44.4601 12.921 44.2469 12.921H40.5884C40.4463 12.921 40.3042 12.9586 40.1977 13.0716C40.0911 13.1847 39.9846 13.2977 39.878 13.4483C39.7714 13.599 39.7359 13.7497 39.6649 13.9003C39.5938 14.051 39.5938 14.2017 39.5938 14.3524V31.642H30.4297V8.43848Z" fill="#202020"/>
<path d="M100.013 16.4238V31.6041H91.0977L90.4584 29.118C90.4229 29.3063 90.3873 29.457 90.3163 29.57C90.2453 29.683 90.1742 29.8337 90.1387 29.9467C90.0677 30.135 89.9966 30.2857 89.8545 30.4363C89.7125 30.587 89.6414 30.7 89.5349 30.813C89.2152 31.0767 88.8955 31.3027 88.5758 31.4157C88.2206 31.5287 87.8299 31.6041 87.4392 31.6041H78.1685C77.6712 31.6041 77.2094 31.5664 76.8187 31.4534C76.428 31.3404 76.0373 31.2274 75.7176 31.039C75.3624 30.8507 75.0427 30.6247 74.7941 30.361C74.5454 30.0973 74.2968 29.7583 74.1192 29.4193C73.9061 29.0426 73.7285 28.5906 73.5864 28.1009C73.4443 27.6112 73.3733 27.1216 73.3022 26.6695C73.2312 26.1799 73.1957 25.6525 73.1957 25.1628C73.1957 24.6731 73.1602 24.1834 73.1602 23.7314C73.1602 23.3171 73.1602 22.8651 73.1602 22.413C73.1602 21.961 73.1957 21.4713 73.2312 20.9817C73.2667 20.492 73.3733 20.04 73.4443 19.5879C73.5154 19.1359 73.6574 18.7216 73.835 18.3449C74.0126 17.9305 74.2613 17.5539 74.581 17.2149C74.9006 16.8758 75.2203 16.6122 75.6466 16.3862C75.9662 16.1978 76.357 16.0848 76.7832 15.9718C77.2094 15.8588 77.6712 15.8211 78.1685 15.8211H88.5048C88.6824 15.8211 88.8955 15.7458 89.0731 15.6328C89.2507 15.5198 89.4638 15.3691 89.6059 15.1431C89.7125 15.0301 89.819 14.8794 89.8901 14.6911C89.9611 14.5028 89.9966 14.3521 89.9966 14.2014C89.9966 14.0131 89.9611 13.8624 89.8545 13.6741C89.748 13.4857 89.6769 13.335 89.5349 13.222C89.3928 13.0714 89.2507 12.9584 89.0731 12.883C88.8955 12.8077 88.7534 12.7324 88.5758 12.7324H74.8296V8.3252H93.9749C94.5432 8.3252 95.0405 8.36286 95.5022 8.47587C95.964 8.58887 96.3902 8.73954 96.7809 8.92788C97.2427 9.11622 97.5979 9.41757 97.9176 9.71891C98.2373 10.0203 98.5214 10.3969 98.7345 10.7736C98.9476 11.1126 99.1608 11.4893 99.3028 11.9037C99.4449 12.318 99.587 12.6947 99.658 13.109C99.8001 13.6741 99.8712 14.2391 99.9422 14.8041C100.013 15.3691 100.013 15.9341 100.013 16.4238ZM89.9611 20.4543H85.0593C84.8462 20.4543 84.6331 20.5296 84.42 20.6426C84.2069 20.7557 84.0293 20.9063 83.8517 21.0947C83.7096 21.283 83.603 21.4713 83.4609 21.6974C83.3189 21.9234 83.2833 22.074 83.2833 22.3V25.6148C83.2833 25.7655 83.3189 25.9162 83.3899 26.0668C83.4609 26.2175 83.532 26.3682 83.6385 26.5189C83.7806 26.6695 83.9582 26.7825 84.1358 26.9332C84.3134 27.0839 84.5265 27.1216 84.6686 27.1216H88.6824C88.8245 27.1216 88.9665 27.0839 89.1441 26.9709C89.3217 26.8579 89.4638 26.7449 89.6059 26.5942C89.7125 26.4812 89.819 26.3305 89.8901 26.1799C89.9611 26.0292 89.9966 25.8785 89.9966 25.7278V20.4543H89.9611Z" fill="#202020"/>
<path d="M113.831 31.6797H103.672V8.43848H113.831V10.5102C113.973 10.2842 114.15 10.0582 114.363 9.83219C114.434 9.71919 114.541 9.60619 114.683 9.49318C114.825 9.38018 114.932 9.30484 115.038 9.26717C115.216 9.15417 115.358 9.04116 115.536 8.92816C115.713 8.81516 115.855 8.73982 116.033 8.70215C116.21 8.62682 116.424 8.58915 116.601 8.55148C116.779 8.51381 116.956 8.47614 117.134 8.47614H123.172V14.9174H117.844C117.312 14.9174 116.814 14.9927 116.388 15.1057C115.926 15.2187 115.5 15.3694 115.18 15.5954C115.003 15.6707 114.825 15.7837 114.683 15.9344C114.541 16.0851 114.434 16.2358 114.292 16.3864C114.115 16.5748 114.008 16.7631 113.937 16.9891C113.866 17.2151 113.831 17.4411 113.831 17.7048V31.6797Z" fill="#202020"/>
<path d="M136.173 16.4989L144.875 8.47559H151.269L145.266 14.0505L154.608 31.7168H142.567L137.807 20.8307L136.137 22.5634V31.7921L126.05 31.7545V0.113281H136.137V16.4989H136.173Z" fill="#202020"/>
</svg>
