<svg width="125" height="26" viewBox="0 0 125 26" fill="none" xmlns="http://www.w3.org/2000/svg">
<path d="M18.0144 25.5991C15.191 25.5991 12.3391 25.5991 9.51568 25.5991C6.69229 25.5991 3.81187 25.5991 0.959961 25.5991V0.164062H9.0879V6.93867C10.5709 6.93867 12.0824 6.93867 13.5654 6.93867C15.0484 6.93867 16.5599 6.93867 18.0429 6.93867C19.2692 6.93867 20.0107 7.33184 20.0107 7.33184C20.2959 7.45281 20.5811 7.60403 20.8092 7.7855C21.0374 7.96696 21.2941 8.17867 21.4937 8.42062C21.893 8.90452 22.2067 9.50939 22.4348 10.205C22.4919 10.5377 22.5774 10.8704 22.6345 11.2635C22.6915 11.6567 22.72 12.0499 22.72 12.4733V20.1854C22.72 20.6391 22.6915 21.0625 22.6345 21.4254C22.5774 21.7884 22.4919 22.1513 22.3778 22.4537C22.2352 22.8469 22.0926 23.2098 21.893 23.5425C21.6933 23.8752 21.4937 24.1171 21.237 24.3288C21.0374 24.5708 20.7807 24.7523 20.524 24.9337C20.2674 25.1152 20.0107 25.2059 19.754 25.2966C19.754 25.2966 18.8699 25.5991 18.0144 25.5991ZM13.5939 10.5982H10.0575C9.91495 10.5982 9.80087 10.6284 9.6868 10.7191C9.57272 10.8099 9.45864 10.9006 9.37309 11.0216C9.23049 11.1426 9.14493 11.2635 9.0879 11.4148C9.03086 11.566 9.00234 11.7172 9.00234 11.8684V20.7903C9.00234 20.9415 9.03086 21.0625 9.11642 21.1835C9.20197 21.3045 9.25901 21.4254 9.34457 21.5162C9.45864 21.6371 9.57272 21.7279 9.6868 21.7884C9.80087 21.8489 9.94347 21.9396 10.0861 21.9396H13.6224C13.7365 21.9396 13.8506 21.9093 13.9647 21.8186C14.0787 21.7279 14.1928 21.6674 14.2784 21.5464C14.3639 21.4254 14.4495 21.3045 14.5065 21.1835C14.5636 21.0625 14.5921 20.9113 14.5921 20.7903V11.8382C14.5921 11.7172 14.5636 11.5962 14.5065 11.445C14.4495 11.2938 14.3924 11.1426 14.2784 11.0518C14.1643 10.9611 14.0787 10.8401 13.9647 10.7494C13.8506 10.6587 13.7365 10.5982 13.5939 10.5982Z" fill="black"/>
<path d="M25.2583 6.93896H32.6447V8.29994C32.7303 8.11847 32.8444 7.93701 32.9584 7.75555C33.0725 7.57408 33.2151 7.45311 33.3292 7.33213C33.4718 7.21116 33.6429 7.12043 33.7855 7.05994C33.9281 6.99945 34.0992 6.93896 34.2988 6.93896H42.1416C42.5123 6.93896 42.8546 6.99945 43.1398 7.15067C43.4249 7.30189 43.6531 7.48335 43.8242 7.69506C43.9668 7.84628 44.1094 8.02774 44.195 8.2092C44.2805 8.39067 44.3661 8.54189 44.4231 8.6931C44.4802 8.84432 44.5087 8.93506 44.5372 8.99554C44.5657 9.05603 44.5372 9.05603 44.5087 8.9653C44.5657 8.72335 44.6227 8.4814 44.6798 8.26969C44.7368 8.05799 44.8509 7.84628 44.965 7.66482C45.0791 7.42287 45.2216 7.2414 45.3928 7.12043C45.5639 6.99945 45.792 6.93896 46.0202 6.93896H52.4655C52.9218 6.93896 53.3496 6.99945 53.7203 7.09018C54.0911 7.18092 54.4048 7.33213 54.7185 7.54384C55.0322 7.75555 55.2604 7.96725 55.4885 8.2092C55.7167 8.45115 55.8878 8.75359 56.0589 9.05603C56.2015 9.32822 56.3156 9.60042 56.4011 9.90286C56.4867 10.2053 56.5722 10.5077 56.6293 10.8102C56.6863 11.2033 56.7433 11.5965 56.7719 11.9897C56.8004 12.3828 56.8289 12.7458 56.8289 13.1087V25.5691H49.4425V11.6268C49.4425 11.4755 49.4139 11.3243 49.3569 11.2033C49.2999 11.0824 49.2428 10.9916 49.1858 10.8707C49.1002 10.8102 49.0147 10.7497 48.9006 10.6892C48.7865 10.6287 48.701 10.6287 48.5869 10.6287H45.5068C45.3928 10.6287 45.3072 10.659 45.1931 10.7194C45.0791 10.7799 45.022 10.8404 44.965 10.9009C44.9079 10.9916 44.8509 11.1126 44.7939 11.2336C44.7368 11.3546 44.7368 11.4453 44.7368 11.5663V25.5691H37.3219V11.6872C37.3219 11.5663 37.2933 11.4453 37.2648 11.2941C37.2363 11.1429 37.1793 11.0219 37.1222 10.9311C37.0367 10.8102 36.9226 10.7194 36.8085 10.659C36.6944 10.5985 36.5233 10.538 36.3522 10.538H33.4148C33.3007 10.538 33.1866 10.5682 33.101 10.659C33.0155 10.7497 32.9299 10.8404 32.8444 10.9614C32.7588 11.0824 32.7303 11.2033 32.6733 11.3243C32.6162 11.4453 32.6162 11.5663 32.6162 11.6872V25.5691H25.2583V6.93896Z" fill="black"/>
<path d="M81.1272 13.3503V25.5386H73.9689L73.4556 23.5425C73.427 23.6937 73.3985 23.8147 73.3415 23.9054C73.2844 23.9961 73.2274 24.1171 73.1989 24.2078C73.1419 24.3591 73.0848 24.48 72.9707 24.601C72.8567 24.722 72.7996 24.8127 72.7141 24.9034C72.4574 25.1151 72.2007 25.2966 71.944 25.3873C71.6589 25.4781 71.3451 25.5386 71.0314 25.5386H63.588C63.1887 25.5386 62.8179 25.5083 62.5042 25.4176C62.1905 25.3269 61.8768 25.2361 61.6201 25.0849C61.335 24.9337 61.0783 24.7522 60.8787 24.5405C60.679 24.3288 60.4794 24.0566 60.3368 23.7844C60.1657 23.482 60.0231 23.1191 59.909 22.7259C59.7949 22.3327 59.7379 21.9395 59.6809 21.5766C59.6238 21.1835 59.5953 20.76 59.5953 20.3669C59.5953 19.9737 59.5668 19.5805 59.5668 19.2176C59.5668 18.8849 59.5668 18.522 59.5668 18.1591C59.5668 17.7961 59.5953 17.403 59.6238 17.0098C59.6523 16.6166 59.7379 16.2537 59.7949 15.8908C59.852 15.5279 59.966 15.1952 60.1086 14.8927C60.2512 14.5601 60.4509 14.2576 60.7075 13.9854C60.9642 13.7132 61.2209 13.5015 61.5631 13.3201C61.8198 13.1689 62.1335 13.0781 62.4757 12.9874C62.8179 12.8967 63.1887 12.8664 63.588 12.8664H71.887C72.0296 12.8664 72.2007 12.8059 72.3433 12.7152C72.4859 12.6245 72.657 12.5035 72.7711 12.322C72.8567 12.2313 72.9422 12.1103 72.9993 11.9591C73.0563 11.8079 73.0848 11.6869 73.0848 11.5659C73.0848 11.4147 73.0563 11.2937 72.9707 11.1425C72.8852 10.9913 72.8281 10.8703 72.7141 10.7796C72.6 10.6586 72.4859 10.5679 72.3433 10.5074C72.2007 10.4469 72.0866 10.3864 71.944 10.3864H60.9072V6.8479H76.2789C76.7353 6.8479 77.1345 6.87814 77.5053 6.96888C77.876 7.05961 78.2182 7.18058 78.532 7.3318C78.9027 7.48302 79.1879 7.72497 79.4446 7.96692C79.7012 8.20887 79.9294 8.51131 80.1005 8.81375C80.2716 9.08594 80.4427 9.38838 80.5568 9.72106C80.6709 10.0537 80.785 10.3562 80.842 10.6889C80.9561 11.1425 81.0131 11.5962 81.0702 12.0498C81.1272 12.5035 81.1272 12.9571 81.1272 13.3503ZM73.0563 16.5864H69.1207C68.9495 16.5864 68.7784 16.6469 68.6073 16.7376C68.4362 16.8283 68.2936 16.9493 68.151 17.1005C68.0369 17.2518 67.9514 17.403 67.8373 17.5844C67.7232 17.7659 67.6947 17.8869 67.6947 18.0683V20.7298C67.6947 20.8508 67.7232 20.9717 67.7803 21.0927C67.8373 21.2137 67.8943 21.3347 67.9799 21.4556C68.094 21.5766 68.2366 21.6674 68.3792 21.7883C68.5218 21.9093 68.6929 21.9395 68.807 21.9395H72.0296C72.1437 21.9395 72.2578 21.9093 72.4004 21.8186C72.5429 21.7278 72.657 21.6371 72.7711 21.5161C72.8567 21.4254 72.9422 21.3044 72.9993 21.1835C73.0563 21.0625 73.0848 20.9415 73.0848 20.8205V16.5864H73.0563Z" fill="black"/>
<path d="M92.2213 25.5994H84.0649V6.93896H92.2213V8.60237C92.3354 8.42091 92.478 8.23945 92.6491 8.05798C92.7062 7.96725 92.7917 7.87652 92.9058 7.78579C93.0199 7.69506 93.1054 7.63457 93.191 7.60433C93.3336 7.5136 93.4477 7.42287 93.5903 7.33213C93.7329 7.2414 93.8469 7.18091 93.9895 7.15067C94.1321 7.09018 94.3032 7.05994 94.4458 7.0297C94.5884 6.99945 94.731 6.96921 94.8736 6.96921H99.7219V12.1409H95.444C95.0162 12.1409 94.6169 12.2014 94.2747 12.2921C93.904 12.3828 93.5617 12.5038 93.3051 12.6853C93.1625 12.7458 93.0199 12.8365 92.9058 12.9575C92.7917 13.0785 92.7062 13.1994 92.5921 13.3204C92.4495 13.4716 92.3639 13.6228 92.3069 13.8043C92.2499 13.9858 92.2213 14.1672 92.2213 14.3789V25.5994Z" fill="black"/>
<path d="M110.159 13.4109L117.146 6.969H122.279L117.46 11.4451L124.96 25.6294H115.292L111.471 16.889L110.13 18.2802V25.6899L102.031 25.6597V0.254883H110.13V13.4109H110.159Z" fill="black"/>
</svg>
