<svg width="127" height="127" viewBox="0 0 127 127" fill="none" xmlns="http://www.w3.org/2000/svg">
<g filter="url(#filter0_d_2464_367)">
<circle cx="58.6056" cy="57.1652" r="35.033" transform="rotate(-0.174885 58.6056 57.1652)" fill="#FCEDEF"/>
</g>
<path d="M58.5476 37.7912L59.7629 35.9545C59.8968 35.7556 60.1184 35.6339 60.3572 35.6331L62.836 35.6256L65.4815 36.2464L68.5839 35.608L70.1143 35.6033C70.686 35.6016 71.031 36.2396 70.7163 36.7181L65.7413 44.2269L58.8172 45.6842L58.5476 37.7912Z" fill="#4FABF7"/>
<path d="M70.1142 35.6031L68.1231 35.6092C68.6948 35.6074 69.0399 36.2454 68.7252 36.724L63.7501 44.2327L58.8058 45.2736L58.8205 45.6839L65.7412 44.2267L70.7163 36.7179C71.0309 36.2393 70.6859 35.6013 70.1142 35.6031Z" fill="#1886EA"/>
<path d="M59.9868 39.9393L62.8459 35.6255L68.5871 35.608L62.8722 44.2356L60.0033 44.2444L59.9901 39.9393L59.9868 39.9393Z" fill="#D3DCFB"/>
<path d="M68.5843 35.608L68.1201 35.6094C68.2681 35.6089 68.3994 35.6522 68.5073 35.7225L68.5843 35.608Z" fill="#BEC8F7"/>
<path d="M62.8728 44.2357L57.3182 35.962C57.1864 35.764 56.9607 35.6436 56.7219 35.6443L54.2364 35.6519L51.7422 36.1068L48.4952 35.6694L46.9649 35.6741C46.3931 35.6758 46.052 36.3159 46.373 36.7925L51.3904 44.2708L57.2119 45.2149L62.8728 44.2357Z" fill="#9BD8F9"/>
<path d="M57.3188 35.962C57.187 35.764 56.9613 35.6436 56.7225 35.6443L54.7314 35.6504C54.9702 35.6497 55.196 35.7701 55.3311 35.9681L60.879 44.2418L56.203 45.0499L57.2125 45.215L62.8701 44.2358L57.3188 35.962Z" fill="#73C3F9"/>
<path d="M57.2128 45.215L54.265 44.7363L54.2636 44.262L48.4961 35.6694L54.2373 35.6519L60.0048 44.2445L60.0063 44.7322L57.2128 45.215Z" fill="#E9EFFF"/>
<path d="M55.7021 46.3462L61.4434 46.3287L61.4609 52.0833L55.7197 52.1009L55.7021 46.3462Z" fill="#FFB332"/>
<path d="M72.2488 65.8672L72.393 65.7221C73.1776 64.9327 73.1737 63.658 72.3843 62.8768L72.2393 62.7326C71.6624 62.1592 71.4882 61.292 71.7953 60.541L71.8721 60.3524C72.2928 59.3253 71.8015 58.1463 70.7744 57.7256L70.5858 57.6489C69.8314 57.3384 69.3415 56.6066 69.339 55.7927L69.3384 55.5842C69.335 54.4709 68.4309 53.5723 67.3176 53.5757L67.1158 53.5763C66.3019 53.5788 65.5672 53.09 65.2521 52.3409L65.1742 52.1528C64.7473 51.1283 63.5652 50.6442 62.5407 51.0711L62.3526 51.1491C61.6002 51.4641 60.7353 51.2919 60.1584 50.7185L60.0133 50.5743C59.2239 49.7897 57.9492 49.7936 57.1679 50.583L57.017 50.7281C56.4436 51.305 55.5764 51.4792 54.8255 51.172L54.6369 51.0952C53.6098 50.6746 52.4307 51.1659 52.0101 52.193L51.9333 52.3816C51.6228 53.1359 50.8911 53.6258 50.0772 53.6283L49.872 53.6289C48.7587 53.6323 47.8601 54.5365 47.8635 55.6497L47.8641 55.8515C47.8666 56.6655 47.3778 57.4002 46.6287 57.7152L46.4406 57.7932C45.4161 58.2201 44.932 59.4021 45.3589 60.4266L45.4369 60.6147C45.7519 61.3672 45.5797 62.2321 45.0063 62.809L44.8621 62.9574C44.0775 63.7468 44.0814 65.0215 44.8708 65.8028L45.0159 65.9503C45.5928 66.5237 45.767 67.3909 45.4598 68.1419L45.383 68.3305C44.9624 69.3576 45.4537 70.5366 46.4808 70.9573L46.6694 71.0341C47.4237 71.3445 47.9136 72.0763 47.9161 72.8902L47.9168 73.0953C47.9202 74.2086 48.8243 75.1072 49.9375 75.1038L50.1427 75.1032C50.9566 75.1007 51.6913 75.5895 52.0064 76.3386L52.0843 76.5267C52.5113 77.5512 53.6933 78.0353 54.7178 77.6084L54.9059 77.5305C55.6583 77.2154 56.5233 77.3876 57.1001 77.961L57.2452 78.1052C58.0346 78.8898 59.3093 78.8859 60.0906 78.0965L60.2348 77.9515C60.8081 77.3746 61.6754 77.2004 62.4263 77.5075L62.6149 77.5843C63.642 78.005 64.8211 77.5137 65.2417 76.4866L65.3185 76.298C65.629 75.5436 66.3607 75.0537 67.1746 75.0512L67.3798 75.0506C68.4931 75.0472 69.3917 74.1431 69.3883 73.0298L69.3877 72.8246C69.3852 72.0107 69.874 71.276 70.623 70.9609L70.8112 70.883C71.8357 70.4561 72.3198 69.2741 71.8929 68.2496L71.8149 68.0614C71.5066 67.309 71.6754 66.4441 72.2488 65.8672Z" fill="#FFDD40"/>
<path d="M58.6445 71.5121C62.6066 71.5 65.8087 68.2783 65.7966 64.3162C65.7845 60.3541 62.5628 57.152 58.6008 57.1641C54.6387 57.1762 51.4366 60.3979 51.4487 64.36C51.4607 68.3221 54.6825 71.5242 58.6445 71.5121Z" fill="#FFB332"/>
<path d="M59.2601 60.4214L60.0993 62.1106C60.2042 62.3222 60.4065 62.4696 60.642 62.5025L62.5095 62.7692C63.0983 62.8515 63.336 63.5739 62.9101 63.9923L61.5621 65.3115C61.3944 65.4768 61.3178 65.7158 61.3588 65.9478L61.684 67.8067C61.7867 68.3916 61.1726 68.8408 60.6437 68.5666L58.9728 67.6939C58.764 67.5835 58.5151 67.5843 58.3035 67.6959L56.638 68.5789C56.1141 68.8563 55.4973 68.4108 55.593 67.8253L55.9069 65.9644C55.9465 65.7322 55.8684 65.4936 55.6998 65.3294L54.3437 64.0184C53.9153 63.606 54.1485 62.8822 54.7368 62.7929L56.6027 62.5148C56.8346 62.4805 57.0393 62.3319 57.143 62.1197L57.9719 60.4254C58.236 59.8931 58.9961 59.8908 59.2601 60.4214Z" fill="#FFDD40"/>
<path d="M64.4054 47.1002L52.7447 47.1358C52.0014 47.1381 51.3975 46.5379 51.3953 45.7946L51.3906 44.271L65.742 44.2272L65.7466 45.7508C65.7489 46.4941 65.1487 47.098 64.4054 47.1002Z" fill="#FFDD40"/>
<path d="M63.7539 44.2331L63.7584 45.7163C63.7607 46.4831 63.1404 47.1039 62.3769 47.1062L64.3647 47.1002C65.1315 47.0978 65.7484 46.4737 65.7461 45.7102L65.7416 44.227L63.7539 44.2331Z" fill="#FFB332"/>
<path d="M72.384 62.8733L72.2389 62.7291C71.662 62.1557 71.4878 61.2885 71.795 60.5376L71.8718 60.349C72.2924 59.3219 71.8011 58.1428 70.774 57.7222L70.5854 57.6454C69.8311 57.3349 69.3412 56.6032 69.3387 55.7893L69.3381 55.5841C69.3347 54.4708 68.4305 53.5722 67.3173 53.5756L67.1155 53.5762C66.3015 53.5787 65.5668 53.0899 65.2518 52.3408L65.1738 52.1527C64.7469 51.1282 63.5649 50.6441 62.5404 51.071L62.3523 51.149C62.3321 51.1557 62.3153 51.1625 62.2951 51.1693C62.6792 51.38 62.9998 51.7188 63.1827 52.1554L63.2606 52.3435C63.5757 53.096 64.3104 53.5814 65.1244 53.5789L65.3295 53.5783C66.4428 53.5749 67.3469 54.4735 67.3503 55.5868L67.3509 55.792C67.3534 56.6059 67.8467 57.3376 68.5977 57.6481L68.7863 57.7249C69.8134 58.1455 70.3047 59.3246 69.884 60.3517L69.8072 60.5403C69.4967 61.2946 69.6743 62.1584 70.2512 62.7318L70.3962 62.876C71.1856 63.6606 71.1895 64.9353 70.4049 65.7214L70.2574 65.8732C69.684 66.4501 69.5151 67.3183 69.8268 68.0674L69.9048 68.2555C70.3317 69.28 69.8476 70.4621 68.8231 70.889L68.635 70.9669C67.8825 71.282 67.3971 72.0167 67.3996 72.8306L67.4002 73.0358C67.4036 74.149 66.505 75.0532 65.3917 75.0566L65.1866 75.0572C64.3726 75.0597 63.6409 75.553 63.3304 76.3039L63.2536 76.4925C63.0734 76.9303 62.7549 77.271 62.3721 77.484C62.3923 77.4907 62.4091 77.4974 62.4293 77.5041L62.6179 77.5808C63.645 78.0015 64.8241 77.5102 65.2447 76.4831L65.3215 76.2945C65.632 75.5402 66.3637 75.0502 67.1776 75.0478L67.3828 75.0471C68.4961 75.0437 69.3947 74.1396 69.3913 73.0263L69.3907 72.8212C69.3882 72.0073 69.877 71.2725 70.6261 70.9575L70.8142 70.8795C71.8387 70.4526 72.3228 69.2706 71.8959 68.2461L71.8179 68.058C71.5028 67.3055 71.6751 66.4406 72.2485 65.8637L72.3927 65.7187C73.1773 64.9326 73.1734 63.6579 72.384 62.8733Z" fill="#FFB332"/>
<path d="M58.6071 57.1644C58.264 57.1654 57.9244 57.1934 57.595 57.2415C61.0809 57.7219 63.7672 60.7071 63.7783 64.326C63.7893 67.945 61.1179 70.9432 57.6383 71.4482C57.9681 71.4943 58.3078 71.5201 58.6509 71.5191C62.6129 71.507 65.8151 68.2852 65.803 64.3232C65.7909 60.3545 62.5691 57.1523 58.6071 57.1644Z" fill="#FF9100"/>
<defs>
<filter id="filter0_d_2464_367" x="0.572266" y="0.132324" width="126.066" height="126.066" filterUnits="userSpaceOnUse" color-interpolation-filters="sRGB">
<feFlood flood-opacity="0" result="BackgroundImageFix"/>
<feColorMatrix in="SourceAlpha" type="matrix" values="0 0 0 0 0 0 0 0 0 0 0 0 0 0 0 0 0 0 127 0" result="hardAlpha"/>
<feOffset dx="5" dy="6"/>
<feGaussianBlur stdDeviation="14"/>
<feComposite in2="hardAlpha" operator="out"/>
<feColorMatrix type="matrix" values="0 0 0 0 0 0 0 0 0 0 0 0 0 0 0 0 0 0 0.13 0"/>
<feBlend mode="normal" in2="BackgroundImageFix" result="effect1_dropShadow_2464_367"/>
<feBlend mode="normal" in="SourceGraphic" in2="effect1_dropShadow_2464_367" result="shape"/>
</filter>
</defs>
</svg>
